<?xml version="1.0" encoding="UTF-8"?>
<!DOCTYPE svg PUBLIC "-//W3C//DTD SVG 1.1//EN" "http://www.w3.org/Graphics/SVG/1.1/DTD/svg11.dtd">
<!-- Creator: CorelDRAW 2021 (64-Bit) -->
<svg xmlns="http://www.w3.org/2000/svg" xml:space="preserve" width="0.444441in" height="0.444441in" version="1.1" style="shape-rendering:geometricPrecision; text-rendering:geometricPrecision; image-rendering:optimizeQuality; fill-rule:evenodd; clip-rule:evenodd"
viewBox="0 0 444.44 444.44"
 xmlns:xlink="http://www.w3.org/1999/xlink"
 xmlns:xodm="http://www.corel.com/coreldraw/odm/2003">
 <defs>
  <style type="text/css">
   <![CDATA[
    .str0 {stroke:black;stroke-width:2.77;stroke-linecap:round;stroke-linejoin:round;stroke-miterlimit:2.61313}
    .fil1 {fill:black}
    .fil2 {fill:#8531AB}
    .fil0 {fill:white}
   ]]>
  </style>
 </defs>
 <g id="Layer_x0020_1">
  <metadata id="CorelCorpID_0Corel-Layer"/>
  <rect class="fil0" x="-6.94" y="-6.94" width="458.33" height="458.33"/>
  <g id="_2029074981152">
   <path class="fil1" d="M191.64 83c14.39,-11.59 30.93,-19.41 51.82,-18.06 21.52,1.39 47.21,11.31 63.09,26.21 12.67,11.88 17.37,31.99 25.65,46.74 10.65,18.96 24.57,33.16 41.07,52.72 27.49,32.58 18.26,46.19 16.94,59.45 -0.3,3.05 -1.44,5.74 -3.26,7.65 -2.33,2.44 -7.51,2.88 -10,2.47 0,0 -7.13,19.35 -13.24,20.36 -3.06,0.51 -9.55,0.44 -14.59,-3.19 -5.04,-3.63 -8.63,-10.82 -8.63,-10.82l1.86 13.97c0.38,2.83 -8.91,-1.46 -23.16,-1.24 -16.16,0.24 -38.22,5.1 -50.83,11.64 -11.24,5.82 -16.34,12.89 -16.34,12.89 0,0 -7.45,-20.49 -21.42,9.31 -13.97,29.8 -51.22,78.22 -51.22,78.22 15.46,-30.61 33.07,-60.45 47.76,-91.48 2.72,-5.76 4.63,-14.43 7.26,-15.22 5.98,-1.79 9.24,7.05 28.8,-2.26 19.56,-9.31 38.18,-10.24 45.63,-10.24 7.45,0 22.28,2.63 22.28,2.63l8.8 2.94 -1.73 -14.5c0,0 2.3,-1.07 6.72,5 4.42,6.08 10.92,4.25 14.23,1.49 3.31,-2.76 8.29,-11.61 1.11,-16.58 -7.19,-4.97 -18.79,-14.92 -18.79,-14.92l0 -3.04 11.04 6.17 7.83 4.37 3.29 -3.76c0,0 -3.44,-3.78 -3.44,-6.54 0,-2.76 4.48,-5.6 10.35,-2.89 5.87,2.71 14.57,-14.55 10.15,-21.18 -4.42,-6.63 -32.59,-35.04 -37.01,-43.33 -4.42,-8.29 -20.45,-29.84 -22.66,-38.13 -6.02,-22.6 -25.34,-32.28 -41.22,-43.13 -13,-8.89 -24.91,-14.07 -39.63,-14.39 -34.2,-0.72 -56.27,16.89 -48.51,10.64z"/>
   <path class="fil2" d="M226.27 161.59c9.29,-53.85 -22.41,-83.24 -96.78,-78.71 -5.38,50.83 16.45,76.85 65.48,78.05 -30.88,-16.06 -51.91,-35.39 -51.29,-61.95 36.38,1.59 56.78,19.16 62.62,51.29l19.98 11.32z"/>
   <path class="fil1" d="M66.96 114.52c18.04,3.36 36.91,1.69 56.62,-5 0.59,10.9 3.26,20.76 10.55,28.31 -23.74,29.43 -56.94,54.42 -94.92,77.16l56.62 -60.51c-18.96,-5.31 -27.48,-19.58 -28.86,-39.96z"/>
   <path class="fil1 str0" d="M297.51 176.15c-9.99,-13.12 -17.63,-21.68 -24.62,-23.3 -9.7,-2.25 -17.06,8.76 -18.55,18.04 19.66,0.2 29.58,-10.84 43.17,5.27z"/>
  </g>
 </g>
</svg>
