<?xml version="1.0" standalone="no"?>
<!DOCTYPE svg PUBLIC "-//W3C//DTD SVG 20010904//EN"
 "http://www.w3.org/TR/2001/REC-SVG-20010904/DTD/svg10.dtd">
<svg version="1.0" xmlns="http://www.w3.org/2000/svg"
 width="1080.000000pt" height="1080.000000pt" viewBox="0 0 1080.000000 1080.000000"
 preserveAspectRatio="xMidYMid meet">

<g transform="translate(0.000000,1080.000000) scale(0.100000,-0.100000)"
fill="#000000" stroke="none">
<path d="M5735 9191 c-302 -54 -559 -172 -847 -389 -48 -36 -86 -67 -84 -69 2
-3 36 12 75 31 326 164 723 256 1111 256 205 0 346 -20 500 -70 103 -33 285
-118 384 -177 157 -95 622 -410 716 -486 250 -201 399 -406 484 -668 54 -170
97 -247 376 -674 86 -132 173 -269 194 -305 77 -132 163 -236 564 -678 302
-333 384 -432 401 -481 45 -136 -66 -418 -191 -482 l-41 -21 -74 22 c-106 31
-186 13 -218 -51 -20 -37 -9 -76 41 -150 l34 -51 -43 -44 -42 -45 -234 130
c-128 72 -235 131 -237 131 -2 0 -4 -17 -4 -37 1 -36 7 -43 141 -153 77 -63
196 -156 263 -207 142 -106 161 -133 161 -229 0 -118 -94 -251 -202 -288 -114
-39 -194 -11 -285 99 -54 67 -138 129 -153 114 -3 -4 4 -80 15 -170 11 -89 20
-171 20 -180 0 -16 -12 -14 -102 17 -196 67 -521 109 -773 101 -357 -13 -690
-92 -1039 -246 -268 -119 -403 -139 -579 -87 -48 14 -104 26 -125 26 -61 0
-89 -40 -157 -230 -72 -199 -291 -632 -755 -1495 -340 -631 -512 -960 -493
-940 48 49 460 622 655 910 272 402 443 687 607 1013 113 223 193 342 265 389
59 39 96 48 141 33 38 -13 122 -99 131 -136 3 -13 8 -24 11 -24 3 0 23 20 45
45 94 107 289 241 460 316 253 111 648 207 991 240 165 15 415 7 572 -20 117
-20 196 -26 207 -16 4 4 -13 146 -37 315 l-7 45 42 -65 c130 -201 259 -281
455 -283 110 -2 138 11 208 99 44 54 169 291 198 375 l12 36 79 6 c140 9 222
76 247 200 102 500 96 686 -28 969 -99 225 -229 404 -631 868 -373 431 -517
613 -665 839 -112 172 -198 339 -320 621 -207 480 -316 650 -530 829 -342 285
-840 500 -1321 571 -180 26 -444 26 -589 1z"/>
<path d="M3348 8763 l-86 -4 -8 -107 c-49 -671 105 -1178 447 -1472 260 -224
635 -356 1072 -376 l122 -6 -84 47 c-204 111 -424 254 -571 371 -124 99 -305
285 -382 394 -152 215 -238 458 -238 675 l0 73 48 -5 c247 -21 393 -48 550
-99 459 -150 765 -461 915 -929 19 -60 40 -137 47 -170 6 -33 13 -67 16 -77 3
-9 98 -69 212 -133 114 -65 226 -128 248 -142 l42 -24 11 63 c6 35 16 133 23
219 24 321 -29 626 -150 866 -161 317 -457 553 -865 688 -201 66 -403 107
-662 135 -108 11 -566 20 -707 13z"/>
<path d="M3050 8068 c-180 -62 -464 -119 -685 -139 -163 -14 -422 -7 -569 16
-55 8 -101 15 -103 15 -8 0 -1 -78 17 -182 43 -252 138 -447 286 -589 106
-101 194 -155 343 -209 l73 -27 -667 -714 c-367 -393 -686 -734 -709 -758 -22
-24 -36 -42 -31 -39 42 22 367 226 530 333 437 288 811 573 1140 867 178 160
472 458 602 612 l101 118 -50 62 c-62 76 -141 236 -168 341 -11 44 -25 123
-31 175 -7 52 -14 104 -18 116 l-6 21 -55 -19z"/>
<path d="M6735 6997 c-63 -21 -97 -42 -143 -87 -83 -82 -154 -212 -181 -329
l-10 -44 107 6 c59 3 190 22 292 42 230 46 334 49 433 16 77 -26 162 -85 226
-157 100 -111 -14 42 -164 220 -118 142 -253 263 -340 305 -74 37 -160 47
-220 28z"/>
</g>
</svg>
